<?xml version="1.0" standalone="no"?>
<!DOCTYPE svg PUBLIC "-//W3C//DTD SVG 20010904//EN"
 "http://www.w3.org/TR/2001/REC-SVG-20010904/DTD/svg10.dtd">
<svg version="1.0" xmlns="http://www.w3.org/2000/svg"
 width="864.000000pt" height="864.000000pt" viewBox="0 0 864.000000 864.000000"
 preserveAspectRatio="xMidYMid meet">
<metadata>
Created by potrace 1.14, written by Peter Selinger 2001-2017
</metadata>
<g transform="translate(0.000000,864.000000) scale(0.100000,-0.100000)"
fill="#000000" stroke="none">
<path d="M2112 8132 c-15 -16 -34 -42 -42 -58 -8 -16 -26 -47 -39 -69 -13 -22
-38 -65 -54 -95 -16 -30 -36 -62 -43 -71 -8 -9 -11 -19 -7 -22 3 -4 2 -7 -4
-7 -6 0 -13 -8 -16 -17 -4 -10 -17 -36 -31 -58 -14 -22 -37 -62 -51 -90 -15
-27 -33 -57 -41 -66 -8 -8 -14 -19 -14 -22 0 -4 -27 -52 -60 -108 -33 -55 -60
-105 -60 -109 0 -5 -6 -15 -12 -22 -13 -14 -22 -28 -66 -107 -14 -25 -56 -100
-95 -166 -38 -66 -81 -140 -95 -165 -14 -25 -45 -78 -69 -118 -24 -41 -43 -75
-43 -78 0 -2 -15 -27 -33 -56 -19 -29 -37 -60 -40 -68 -4 -8 -15 -28 -25 -45
-22 -35 -61 -105 -88 -155 -11 -19 -22 -37 -25 -40 -3 -3 -9 -12 -12 -20 -4
-8 -21 -37 -38 -65 -16 -27 -35 -62 -40 -77 -6 -16 -14 -28 -18 -28 -4 0 -18
-22 -31 -50 -13 -27 -27 -50 -32 -50 -4 0 -8 -5 -8 -10 0 -8 -175 -318 -220
-390 -5 -8 -19 -33 -31 -55 -11 -22 -24 -42 -28 -45 -3 -3 -14 -21 -23 -40
-10 -19 -22 -42 -28 -50 -8 -13 -115 -198 -171 -297 -66 -115 -119 -208 -129
-223 -6 -8 -13 -23 -16 -32 -4 -10 -10 -18 -15 -18 -5 0 -9 -5 -9 -11 0 -6
-32 -65 -71 -132 -40 -67 -83 -142 -97 -167 -13 -25 -28 -49 -33 -55 -21 -22
-6 -68 60 -175 11 -19 24 -42 28 -50 4 -8 51 -91 106 -184 54 -93 109 -188
121 -210 66 -116 226 -394 282 -489 35 -59 64 -110 64 -113 0 -3 9 -18 19 -33
11 -14 30 -47 43 -71 88 -164 151 -259 176 -267 15 -5 931 -9 2090 -8 l2063 0
19 25 c30 39 24 78 -19 133 -8 9 -10 17 -5 17 5 0 4 4 -2 8 -5 4 -23 30 -38
57 -62 111 -80 142 -103 177 -12 21 -23 40 -23 44 0 3 -9 18 -19 33 -11 14
-31 48 -45 74 -54 97 -75 135 -145 254 -39 67 -71 126 -71 132 0 6 -4 11 -8
11 -4 0 -21 25 -37 56 -17 30 -34 63 -40 72 -5 9 -43 74 -83 145 -41 70 -77
127 -80 127 -4 0 -24 4 -44 9 -22 5 -36 5 -32 0 6 -11 6 -11 -32 0 -17 5 -37
5 -43 1 -7 -4 -30 -4 -51 0 -22 4 -37 3 -34 -1 4 -8 -19 -6 -78 6 -10 2 -18 0
-18 -5 0 -4 -16 -4 -35 0 -21 5 -33 4 -29 -1 3 -6 -6 -7 -22 -3 -16 4 -34 7
-41 6 -7 -1 -30 -2 -50 -2 -21 0 -54 -1 -73 -1 -19 0 -46 0 -60 0 -14 1 -36 1
-50 0 -31 -1 -37 -1 -77 4 -17 2 -30 0 -27 -5 4 -7 -20 -5 -78 7 -10 2 -18 0
-18 -3 0 -4 -30 -6 -67 -4 -86 3 -123 3 -148 -2 -11 -2 -28 1 -37 6 -12 5 -18
5 -18 -1 0 -6 -9 -7 -22 -2 -12 4 -36 5 -53 1 -17 -4 -39 -5 -50 -3 -11 3 -31
4 -45 3 -30 -2 -36 -2 -77 3 -17 2 -30 0 -27 -5 4 -7 -20 -5 -78 7 -10 2 -18
0 -18 -3 0 -4 -30 -6 -67 -4 -38 1 -84 2 -103 1 -50 -1 -71 -1 -107 3 -17 2
-30 1 -27 -4 4 -7 -20 -5 -78 7 -10 2 -18 0 -18 -5 0 -4 -16 -4 -35 0 -20 5
-33 4 -29 -1 6 -11 6 -11 -32 0 -17 5 -37 5 -43 1 -7 -4 -30 -4 -51 0 -22 4
-37 3 -34 -1 4 -8 -19 -6 -78 6 -10 2 -18 0 -18 -5 0 -4 -16 -4 -35 0 -21 5
-33 4 -29 -1 3 -6 -6 -7 -22 -3 -16 4 -34 7 -41 6 -25 -3 -118 -2 -150 1 -17
2 -30 0 -27 -5 4 -7 -20 -5 -78 7 -10 2 -18 0 -18 -4 0 -15 -125 0 -150 18
-52 38 -48 49 125 346 48 83 99 170 113 195 14 25 34 59 44 75 10 17 24 42 30
58 7 15 16 27 20 27 4 0 8 4 8 10 0 5 18 39 40 75 22 36 40 67 40 70 0 4 67
119 90 155 6 8 13 22 17 30 4 8 23 42 43 75 20 33 40 67 44 75 4 8 12 24 19
35 7 11 32 54 55 95 24 41 47 82 52 90 11 17 78 133 129 223 10 18 50 88 90
155 39 68 71 127 71 132 0 6 4 10 8 10 4 0 15 15 23 33 20 40 170 300 178 307
3 3 7 12 9 20 2 8 10 22 18 31 8 8 14 18 14 22 0 14 74 129 89 136 9 5 941 9
2072 9 1131 0 2066 3 2078 7 13 4 29 21 36 38 15 36 11 49 -47 145 -21 34 -38
67 -38 72 0 6 -4 10 -10 10 -5 0 -10 4 -10 9 0 5 -23 49 -51 98 -29 48 -65
113 -82 143 -16 30 -36 62 -43 71 -8 8 -14 18 -14 22 0 3 -38 71 -85 151 -47
80 -85 150 -85 156 0 5 -3 10 -7 10 -5 0 -13 10 -19 23 -9 18 -70 124 -205
357 -8 14 -23 33 -33 42 -18 17 -129 18 -2134 18 l-2114 0 -26 -28z"/>
<path d="M3436 6009 c-38 -30 -38 -54 1 -127 19 -37 41 -74 48 -82 8 -8 14
-19 16 -25 1 -9 41 -79 69 -125 5 -8 23 -38 38 -66 43 -75 83 -146 99 -174 8
-14 23 -38 33 -55 10 -16 25 -41 33 -55 51 -95 163 -286 169 -288 5 -2 8 -7 8
-12 0 -4 32 -64 71 -132 40 -67 81 -139 92 -159 11 -21 30 -42 43 -48 16 -7
444 -10 1393 -10 1238 0 1372 -1 1394 -16 35 -22 38 -57 11 -107 -13 -24 -26
-50 -30 -58 -4 -8 -28 -51 -54 -95 -26 -44 -84 -145 -130 -225 -46 -80 -111
-192 -145 -250 -34 -58 -64 -112 -68 -120 -4 -8 -15 -28 -26 -45 -21 -36 -123
-212 -159 -274 -13 -24 -60 -104 -103 -178 -43 -75 -79 -139 -79 -143 0 -4 -7
-13 -15 -20 -8 -7 -12 -16 -9 -21 3 -5 1 -9 -4 -9 -5 0 -12 -8 -16 -17 -3 -10
-19 -40 -36 -68 -17 -27 -34 -57 -37 -65 -4 -8 -9 -17 -12 -20 -3 -3 -15 -22
-26 -42 -11 -21 -75 -133 -142 -249 -68 -116 -123 -215 -123 -220 0 -5 -4 -9
-9 -9 -5 0 -11 -8 -14 -17 -3 -10 -19 -40 -36 -68 -17 -27 -37 -64 -46 -81
-17 -32 -50 -73 -63 -75 -4 -1 -932 -3 -2062 -4 -1130 -2 -2063 -4 -2072 -4
-27 -2 -58 -38 -58 -69 0 -15 18 -59 41 -97 22 -39 51 -88 64 -110 33 -59 57
-100 115 -200 62 -106 83 -142 111 -192 23 -42 195 -339 209 -363 65 -109 110
-190 110 -198 0 -6 4 -12 8 -14 5 -2 23 -28 40 -59 21 -37 42 -60 60 -67 18
-6 731 -9 2128 -8 1781 1 2103 3 2118 15 15 13 116 176 116 188 0 3 8 17 19
31 10 15 29 47 43 72 14 25 57 100 97 167 39 68 71 126 71 129 0 4 11 22 25
40 14 18 25 35 25 39 0 3 41 75 90 160 50 85 90 159 90 165 0 5 4 10 8 10 5 0
17 19 28 41 10 23 23 47 29 53 5 6 19 29 30 51 11 22 22 42 26 45 3 3 19 30
36 60 17 30 72 127 123 215 51 88 104 180 118 205 13 25 31 53 40 63 8 9 12
17 8 17 -4 0 1 12 12 27 15 23 80 133 200 343 11 19 44 76 73 125 29 50 62
108 74 130 23 42 56 98 144 248 28 49 51 93 51 98 0 5 5 9 10 9 6 0 10 4 10 9
0 5 36 70 80 146 44 76 80 141 80 146 0 5 5 9 10 9 6 0 10 4 10 9 0 5 23 48
50 96 28 48 50 91 50 96 0 5 5 9 10 9 6 0 10 6 10 14 0 7 7 19 15 26 8 7 13
16 10 20 -3 5 -2 10 3 12 4 1 34 50 67 108 146 255 136 234 123 272 -6 18 -17
40 -24 48 -7 8 -17 26 -23 40 -6 14 -20 39 -31 55 -10 17 -25 41 -33 55 -56
100 -72 128 -88 152 -11 14 -19 29 -19 33 0 3 -22 43 -49 88 -86 146 -129 222
-129 231 0 5 -4 12 -9 15 -5 3 -44 69 -88 146 -43 77 -82 142 -85 145 -3 3
-10 14 -16 25 -6 11 -23 43 -39 70 -16 28 -34 61 -42 75 -8 14 -22 39 -32 55
-18 30 -54 92 -75 130 -66 117 -93 155 -115 164 -17 6 -756 10 -2084 9 -1986
-1 -2058 -1 -2081 -19z"/>
</g>
</svg>
